<svg width="556" height="125" viewBox="0 0 556 125" fill="none" xmlns="http://www.w3.org/2000/svg">
<path opacity="0.86" d="M19.8636 98.5L0.136364 28.6818H16.9091L29.1818 77.7727H29.8182L42.3636 28.6818H58.9545L71.5 77.5H72.1818L84.2727 28.6818H101.091L81.3182 98.5H64.1818L51.0909 51.3182H50.1364L37.0455 98.5H19.8636ZM141.489 99.8636C134.489 99.8636 128.443 98.4091 123.352 95.5C118.292 92.5606 114.398 88.4091 111.67 83.0455C108.943 77.6515 107.58 71.303 107.58 64C107.58 56.8182 108.943 50.5152 111.67 45.0909C114.428 39.6364 118.277 35.3939 123.216 32.3636C128.155 29.303 133.958 27.7727 140.625 27.7727C144.928 27.7727 148.989 28.4697 152.807 29.8636C156.655 31.2273 160.049 33.3485 162.989 36.2273C165.958 39.1061 168.292 42.7727 169.989 47.2273C171.686 51.6515 172.534 56.9242 172.534 63.0455V68.0909H115.307V57H156.761C156.731 53.8485 156.049 51.0455 154.716 48.5909C153.383 46.1061 151.519 44.1515 149.125 42.7273C146.761 41.303 144.004 40.5909 140.852 40.5909C137.489 40.5909 134.534 41.4091 131.989 43.0455C129.443 44.6515 127.458 46.7727 126.034 49.4091C124.64 52.0151 123.928 54.8788 123.898 58V67.6818C123.898 71.7424 124.64 75.2273 126.125 78.1364C127.61 81.0152 129.686 83.2273 132.352 84.7727C135.019 86.2879 138.14 87.0455 141.716 87.0455C144.11 87.0455 146.277 86.7121 148.216 86.0455C150.155 85.3485 151.837 84.3333 153.261 83C154.686 81.6667 155.761 80.0152 156.489 78.0455L171.852 79.7727C170.883 83.8333 169.034 87.3788 166.307 90.4091C163.61 93.4091 160.155 95.7424 155.943 97.4091C151.731 99.0455 146.913 99.8636 141.489 99.8636ZM187.182 98.5V5.40909H203.636V40.2273H204.318C205.167 38.5303 206.364 36.7273 207.909 34.8182C209.455 32.8788 211.545 31.2273 214.182 29.8636C216.818 28.4697 220.182 27.7727 224.273 27.7727C229.667 27.7727 234.53 29.1515 238.864 31.9091C243.227 34.6364 246.682 38.6818 249.227 44.0455C251.803 49.3788 253.091 55.9242 253.091 63.6818C253.091 71.3485 251.833 77.8636 249.318 83.2273C246.803 88.5909 243.379 92.6818 239.045 95.5C234.712 98.3182 229.803 99.7273 224.318 99.7273C220.318 99.7273 217 99.0606 214.364 97.7273C211.727 96.3939 209.606 94.7879 208 92.9091C206.424 91 205.197 89.197 204.318 87.5H203.364V98.5H187.182ZM203.318 63.5909C203.318 68.1061 203.955 72.0606 205.227 75.4545C206.53 78.8485 208.394 81.5 210.818 83.4091C213.273 85.2879 216.242 86.2273 219.727 86.2273C223.364 86.2273 226.409 85.2576 228.864 83.3182C231.318 81.3485 233.167 78.6667 234.409 75.2727C235.682 71.8485 236.318 67.9545 236.318 63.5909C236.318 59.2576 235.697 55.4091 234.455 52.0455C233.212 48.6818 231.364 46.0455 228.909 44.1364C226.455 42.2273 223.394 41.2727 219.727 41.2727C216.212 41.2727 213.227 42.197 210.773 44.0455C208.318 45.8939 206.455 48.4848 205.182 51.8182C203.939 55.1515 203.318 59.0758 203.318 63.5909ZM283.534 5.40909V98.5H267.08V5.40909H283.534ZM300.455 98.5V28.6818H316.909V98.5H300.455ZM308.727 18.7727C306.121 18.7727 303.879 17.9091 302 16.1818C300.121 14.4242 299.182 12.3182 299.182 9.86363C299.182 7.37878 300.121 5.27272 302 3.54545C303.879 1.78787 306.121 0.909088 308.727 0.909088C311.364 0.909088 313.606 1.78787 315.455 3.54545C317.333 5.27272 318.273 7.37878 318.273 9.86363C318.273 12.3182 317.333 14.4242 315.455 16.1818C313.606 17.9091 311.364 18.7727 308.727 18.7727ZM350.284 57.5909V98.5H333.83V28.6818H349.557V40.5455H350.375C351.981 36.6364 354.542 33.5303 358.057 31.2273C361.602 28.9242 365.981 27.7727 371.193 27.7727C376.011 27.7727 380.208 28.803 383.784 30.8636C387.39 32.9242 390.178 35.9091 392.148 39.8182C394.148 43.7273 395.133 48.4697 395.102 54.0455V98.5H378.648V56.5909C378.648 51.9242 377.436 48.2727 375.011 45.6364C372.617 43 369.299 41.6818 365.057 41.6818C362.178 41.6818 359.617 42.3182 357.375 43.5909C355.163 44.8333 353.42 46.6364 352.148 49C350.905 51.3636 350.284 54.2273 350.284 57.5909ZM458.42 124.682V87.5H457.739C456.89 89.197 455.663 91 454.057 92.9091C452.451 94.7879 450.33 96.3939 447.693 97.7273C445.057 99.0606 441.739 99.7273 437.739 99.7273C432.254 99.7273 427.345 98.3182 423.011 95.5C418.678 92.6818 415.254 88.5909 412.739 83.2273C410.223 77.8636 408.966 71.3485 408.966 63.6818C408.966 55.9242 410.239 49.3788 412.784 44.0455C415.36 38.6818 418.83 34.6364 423.193 31.9091C427.557 29.1515 432.42 27.7727 437.784 27.7727C441.875 27.7727 445.239 28.4697 447.875 29.8636C450.511 31.2273 452.602 32.8788 454.148 34.8182C455.693 36.7273 456.89 38.5303 457.739 40.2273H458.739V28.6818H474.92V124.682H458.42ZM442.33 86.2273C445.814 86.2273 448.784 85.2879 451.239 83.4091C453.693 81.5 455.557 78.8485 456.83 75.4545C458.102 72.0606 458.739 68.1061 458.739 63.5909C458.739 59.0758 458.102 55.1515 456.83 51.8182C455.587 48.4848 453.739 45.8939 451.284 44.0455C448.86 42.197 445.875 41.2727 442.33 41.2727C438.663 41.2727 435.602 42.2273 433.148 44.1364C430.693 46.0455 428.845 48.6818 427.602 52.0455C426.36 55.4091 425.739 59.2576 425.739 63.5909C425.739 67.9545 426.36 71.8485 427.602 75.2727C428.875 78.6667 430.739 81.3485 433.193 83.3182C435.678 85.2576 438.723 86.2273 442.33 86.2273ZM522.284 99.8636C515.466 99.8636 509.557 98.3636 504.557 95.3636C499.557 92.3636 495.678 88.1667 492.92 82.7727C490.193 77.3788 488.83 71.0758 488.83 63.8636C488.83 56.6515 490.193 50.3333 492.92 44.9091C495.678 39.4848 499.557 35.2727 504.557 32.2727C509.557 29.2727 515.466 27.7727 522.284 27.7727C529.102 27.7727 535.011 29.2727 540.011 32.2727C545.011 35.2727 548.875 39.4848 551.602 44.9091C554.36 50.3333 555.739 56.6515 555.739 63.8636C555.739 71.0758 554.36 77.3788 551.602 82.7727C548.875 88.1667 545.011 92.3636 540.011 95.3636C535.011 98.3636 529.102 99.8636 522.284 99.8636ZM522.375 86.6818C526.072 86.6818 529.163 85.6667 531.648 83.6364C534.133 81.5758 535.981 78.8182 537.193 75.3636C538.436 71.9091 539.057 68.0606 539.057 63.8182C539.057 59.5455 538.436 55.6818 537.193 52.2273C535.981 48.7424 534.133 45.9697 531.648 43.9091C529.163 41.8485 526.072 40.8182 522.375 40.8182C518.587 40.8182 515.436 41.8485 512.92 43.9091C510.436 45.9697 508.572 48.7424 507.33 52.2273C506.117 55.6818 505.511 59.5455 505.511 63.8182C505.511 68.0606 506.117 71.9091 507.33 75.3636C508.572 78.8182 510.436 81.5758 512.92 83.6364C515.436 85.6667 518.587 86.6818 522.375 86.6818Z" fill="url(#paint0_linear_332_932)"/>
<defs>
<linearGradient id="paint0_linear_332_932" x1="-3" y1="31.5" x2="555" y2="109" gradientUnits="userSpaceOnUse">
<stop stop-color="#FBD201"/>
<stop offset="0.107942" stop-color="#F86F1E"/>
<stop offset="0.317046" stop-color="#FC2A71"/>
<stop offset="0.720161" stop-color="#5D35CD"/>
<stop offset="1" stop-color="#34B5D5"/>
</linearGradient>
</defs>
</svg>
